<svg xmlns="http://www.w3.org/2000/svg" viewBox="0 0 32 32" id="copy"><defs><linearGradient id="a" x1="3.78" x2="28.22" y1="28.22" y2="3.78" gradientUnits="userSpaceOnUse"><stop offset="0" stop-color="#4996d2"></stop><stop offset="1" stop-color="#eb314c"></stop></linearGradient></defs><path fill="url(#a)" d="M6.67 30h15a2.67 2.67 0 0 0 2.66-2.67v-1.66h1A2.68 2.68 0 0 0 28 23V4.67A2.68 2.68 0 0 0 25.33 2h-15a2.67 2.67 0 0 0-2.66 2.67v6.08l-2.89 2.89A2.65 2.65 0 0 0 4 15.52v11.81A2.68 2.68 0 0 0 6.67 30Zm15.66-2.67a.67.67 0 0 1-.66.67h-15a.68.68 0 0 1-.67-.67v-11.5h4.83a2.67 2.67 0 0 0 2.67-2.66V8.33h8.17a.67.67 0 0 1 .66.67ZM7.41 13.83l4.09-4.08v3.42a.67.67 0 0 1-.67.66Zm2.26-9.16a.67.67 0 0 1 .66-.67h15a.67.67 0 0 1 .67.67V23a.67.67 0 0 1-.67.67h-1V9a2.67 2.67 0 0 0-2.66-2.67h-8.48a2.73 2.73 0 0 0-1.89.78L9.67 8.75Z"></path></svg>