<svg xmlns="http://www.w3.org/2000/svg" viewBox="0 0 48 48" id="download"><linearGradient id="a" x1="29.727" x2="19.477" y1="-14.238" y2="67.887" gradientUnits="userSpaceOnUse"><stop offset="0" stop-color="#fc6565" stop-opacity=".9"></stop><stop offset=".302" stop-color="#b66693" stop-opacity=".9"></stop><stop offset=".634" stop-color="#7066c1" stop-opacity=".9"></stop><stop offset=".874" stop-color="#4467de" stop-opacity=".9"></stop><stop offset=".995" stop-color="#3367e9" stop-opacity=".9"></stop></linearGradient><path fill="url(#a)" d="M24.1 39.1c.3.3.4.4.8.4.3 0 .6-.1.8-.4L37 24.6c.3-.4.3-1.1-.2-1.4-.4-.3-1.1-.3-1.4.2l-9.5 12.2L26 3c0-.6-.4-1-1-1s-1 .4-1 1v32.5l-9.4-12.2c-.3-.4-1-.5-1.4-.2-.4.3-.5 1-.2 1.4l11.1 14.6z"></path><linearGradient id="b" x1="32.301" x2="22.052" y1="-13.916" y2="68.209" gradientUnits="userSpaceOnUse"><stop offset="0" stop-color="#fc6565" stop-opacity=".9"></stop><stop offset=".302" stop-color="#b66693" stop-opacity=".9"></stop><stop offset=".634" stop-color="#7066c1" stop-opacity=".9"></stop><stop offset=".874" stop-color="#4467de" stop-opacity=".9"></stop><stop offset=".995" stop-color="#3367e9" stop-opacity=".9"></stop></linearGradient><path fill="url(#b)" d="M37.8 43.9H12.1c-.6 0-1 .4-1 1s.4 1 1 1h25.8c.6 0 1-.4 1-1s-.5-1-1.1-1z"></path></svg>