<svg xmlns="http://www.w3.org/2000/svg" viewBox="0 0 24 24" id="headphone"><defs><linearGradient id="a" x1="5.186" x2="18.814" y1="20.9" y2="7.273" gradientUnits="userSpaceOnUse"><stop offset="0" stop-color="#5433ff"></stop><stop offset="1" stop-color="#20bdff"></stop></linearGradient></defs><path fill="url(#a)" d="m18.75,11.594v-1.594c0-3.722-3.028-6.75-6.75-6.75s-6.75,3.028-6.75,6.75v1.594c-1.754.699-3,2.406-3,4.406,0,2.619,2.131,4.75,4.75,4.75h1c.965,0,1.75-.785,1.75-1.75v-6c0-.965-.785-1.75-1.75-1.75h-1c-.086,0-.165.021-.25.025v-1.275c0-2.895,2.355-5.25,5.25-5.25s5.25,2.355,5.25,5.25v1.275c-.085-.005-.164-.025-.25-.025h-1c-.965,0-1.75.785-1.75,1.75v6c0,.965.785,1.75,1.75,1.75h1c2.619,0,4.75-2.131,4.75-4.75,0-2-1.246-3.707-3-4.406Zm-10.75,1.156c.138,0,.25.112.25.25v6c0,.138-.112.25-.25.25h-1c-1.792,0-3.25-1.458-3.25-3.25s1.458-3.25,3.25-3.25h1Zm9,6.5h-1c-.138,0-.25-.112-.25-.25v-6c0-.138.112-.25.25-.25h1c1.792,0,3.25,1.458,3.25,3.25s-1.458,3.25-3.25,3.25Z"></path></svg>