<svg xmlns="http://www.w3.org/2000/svg" data-name="Layer 2" viewBox="0 0 190.64 188.62" id="home"><defs><linearGradient id="a" x1="139.63" x2="35.1" y1="214.52" y2="33.47" gradientUnits="userSpaceOnUse"><stop offset="0" stop-color="#00d4fe"></stop><stop offset="1" stop-color="#ff6af7"></stop></linearGradient></defs><path fill="url(#a)" d="M188.19,89.39L101.25,2.46c-1.58-1.58-3.69-2.46-5.93-2.46s-4.34,.87-5.93,2.46L2.46,89.39c-1.58,1.58-2.46,3.69-2.46,5.93v84.91c0,4.62,3.76,8.38,8.38,8.38h60.42c4.62,0,8.38-3.76,8.38-8.38v-40.84c0-.76,.62-1.38,1.38-1.38h33.49c.76,0,1.38,.62,1.38,1.38v40.84c0,4.62,3.76,8.38,8.38,8.38h60.42c4.62,0,8.38-3.76,8.38-8.38V95.32c0-2.24-.87-4.34-2.46-5.93Zm-4.54,90.84c0,.76-.62,1.38-1.38,1.38h-60.42c-.76,0-1.38-.62-1.38-1.38v-40.84c0-4.62-3.76-8.38-8.38-8.38h-33.49c-4.62,0-8.38,3.76-8.38,8.38v40.84c0,.76-.62,1.38-1.38,1.38H8.38c-.76,0-1.38-.62-1.38-1.38V95.32c0-.36,.15-.72,.41-.98L94.34,7.41c.35-.35,.77-.41,.98-.41s.63,.05,.98,.41l86.94,86.94c.26,.26,.41,.62,.41,.98v84.91Z" data-name="Layer 1"></path></svg>