<svg xmlns="http://www.w3.org/2000/svg" viewBox="0 0 32 32" id="information"><defs><linearGradient id="a" x1="9.001" x2="22.999" y1="28.122" y2="3.878" gradientUnits="userSpaceOnUse"><stop offset="0" stop-color="#4c46c8"></stop><stop offset="1" stop-color="#87bfff"></stop></linearGradient></defs><path fill="url(#a)" d="M16 2a14 14 0 1 0 14 14A14.015 14.015 0 0 0 16 2Zm0 26a12 12 0 1 1 12-12 12.013 12.013 0 0 1-12 12Zm3.936-15.712a3.978 3.978 0 0 1-2.406 4.406.946.946 0 0 0-.53.885V18a1 1 0 0 1-2 0v-.42a2.926 2.926 0 0 1 1.765-2.733 1.993 1.993 0 0 0 1.2-2.213 2 2 0 0 0-3.853-.3 1 1 0 1 1-1.884-.67 4 4 0 0 1 7.708.624ZM17 21v1a1 1 0 0 1-2 0v-1a1 1 0 0 1 2 0Z" data-name="Layer 2"></path></svg>