<svg xmlns="http://www.w3.org/2000/svg" viewBox="0 0 32 32" id="padlock"><defs><linearGradient id="a" x1="9.872" x2="24.665" y1="31.544" y2="5.921" gradientUnits="userSpaceOnUse"><stop offset="0" stop-color="#4c46c8"></stop><stop offset="1" stop-color="#87bfff"></stop></linearGradient></defs><path fill="url(#a)" d="M24 12h-1V9A7 7 0 0 0 9 9v3H8a3 3 0 0 0-3 3v12a3 3 0 0 0 3 3h16a3 3 0 0 0 3-3V15a3 3 0 0 0-3-3ZM11 9a5 5 0 0 1 10 0v3H11Zm14 18a1 1 0 0 1-1 1H8a1 1 0 0 1-1-1V15a1 1 0 0 1 1-1h16a1 1 0 0 1 1 1Zm-8-6v2a1 1 0 0 1-2 0v-2a1 1 0 0 1 2 0Z" data-name="Layer 2"></path></svg>