<svg xmlns="http://www.w3.org/2000/svg" xmlns:xlink="http://www.w3.org/1999/xlink" viewBox="0 0 32 32" id="loop"><defs><linearGradient id="a" x1="3.64" x2="22.81" y1="22.81" y2="3.64" gradientUnits="userSpaceOnUse"><stop offset="0" stop-color="#4996d2"></stop><stop offset="1" stop-color="#eb314c"></stop></linearGradient><linearGradient id="b" x1="9.19" x2="28.36" y1="28.36" y2="9.19" xlink:href="#a"></linearGradient></defs><path fill="url(#a)" d="M3 21.76a1 1 0 0 0 1-1v-4a6.54 6.54 0 0 1 6.54-6.54h14.05l-1.54 1.54a1 1 0 0 0 .71 1.71 1 1 0 0 0 .7-.3L27.71 10a1 1 0 0 0 0-1.41l-3.25-3.3a1 1 0 0 0-1.41 0 1 1 0 0 0 0 1.42l1.54 1.53h-14A8.55 8.55 0 0 0 2 16.78v4a1 1 0 0 0 1 .98Z"></path><path fill="url(#b)" d="M29 10.24a1 1 0 0 0-1 1v4a6.54 6.54 0 0 1-6.54 6.54h-14L9 20.22a1 1 0 0 0-1.41-1.41l-3.3 3.24a1 1 0 0 0 0 1.41l3.25 3.25a1 1 0 0 0 .7.29 1 1 0 0 0 .76-.29 1 1 0 0 0 0-1.42l-1.59-1.53h14.05A8.55 8.55 0 0 0 30 15.22v-4a1 1 0 0 0-1-.98Z"></path></svg>