<svg xmlns="http://www.w3.org/2000/svg" enable-background="new 0 0 512 512" viewBox="0 0 512 512" id="play"><linearGradient id="a" x1="79.867" x2="281.264" y1="26.491" y2="386.886" gradientUnits="userSpaceOnUse"><stop offset="0" stop-color="#4e266d"></stop><stop offset="1" stop-color="#3ebbd1"></stop></linearGradient><path fill="url(#a)" fill-rule="evenodd" d="M409.383,264.658L112.605,436.008c-4.51,2.6-8.493,0.87-10,0c-1.5-0.87-5-3.45-5-8.66V84.65c0-5.21,3.501-7.793,5-8.661c0.918-0.52,2.75-1.369,5.05-1.369c1.488,0,3.179,0.348,4.95,1.369l296.789,171.349c4.51,2.611,4.988,6.921,5,8.66C414.395,257.739,413.905,262.057,409.383,264.658L409.383,264.658z M419.383,230.018L122.605,58.668c-9.391-5.421-20.6-5.421-29.999,0c-9.392,5.432-15,15.141-15,25.983v342.698c0,10.84,5.608,20.559,15,25.979c4.698,2.711,9.847,4.071,15,4.071c5.149,0,10.31-1.36,15-4.071l296.778-171.349c9.403-5.42,15.011-15.13,15.011-25.98C434.383,245.148,428.786,235.439,419.383,230.018z" clip-rule="evenodd"></path></svg>