<svg xmlns="http://www.w3.org/2000/svg" viewBox="0 0 24 24" id="search"><defs><linearGradient id="a" x1="12" x2="12" y1="21.5" y2="2.5" gradientUnits="userSpaceOnUse"><stop offset="0" stop-color="#d500f9"></stop><stop offset="1" stop-color="#ffeb3b"></stop></linearGradient></defs><path fill="url(#a)" d="M22 15.52v2a4 4 0 0 1-4 4L6 21.4a4 4 0 0 1-4-4v-1.88h2v1.88a2 2 0 0 0 2 2l12 .1a2 2 0 0 0 2-2v-2ZM5.66 4.19c4.95-4.8 12.53 1.59 8.68 7.26l3.37 3.37a1 1 0 0 1 0 1.41 1 1 0 0 1-1.42 0l-3.36-3.36a5.73 5.73 0 0 1-3.24 1C4.77 14 2.07 7.63 5.66 4.19Zm6.63 6.63c3.35-3.53-1.69-8.57-5.21-5.22a3.69 3.69 0 0 0 5.21 5.22Z"></path></svg>