<svg xmlns="http://www.w3.org/2000/svg" enable-background="new 0 0 32 32" viewBox="0 0 32 32" id="share"><linearGradient id="a" x1=".148" x2="31.576" y1="16" y2="16" gradientUnits="userSpaceOnUse"><stop offset="0" stop-color="#8db9f2"></stop><stop offset="1" stop-color="#4970bf"></stop></linearGradient><path fill="url(#a)" d="M25,20c-1.6,0-3,0.8-3.9,1.9l-9.3-4.6c0.1-0.4,0.2-0.8,0.2-1.3s-0.1-0.9-0.2-1.3l9.3-4.6C22,11.2,23.4,12,25,12
	c2.8,0,5-2.2,5-5s-2.2-5-5-5s-5,2.2-5,5c0,0.4,0.1,0.9,0.2,1.3l-9.3,4.6C10,11.8,8.6,11,7,11c-2.8,0-5,2.2-5,5s2.2,5,5,5
	c1.6,0,3-0.8,3.9-1.9l9.3,4.6C20.1,24.1,20,24.6,20,25c0,2.8,2.2,5,5,5s5-2.2,5-5S27.8,20,25,20z M25,4c1.7,0,3,1.3,3,3s-1.3,3-3,3
	s-3-1.3-3-3S23.3,4,25,4z M7,19c-1.7,0-3-1.3-3-3s1.3-3,3-3s3,1.3,3,3S8.7,19,7,19z M25,28c-1.7,0-3-1.3-3-3s1.3-3,3-3s3,1.3,3,3
	S26.7,28,25,28z"></path></svg>