<svg xmlns="http://www.w3.org/2000/svg" data-name="Gradient Line" viewBox="0 0 24 24" id="unlock"><defs><linearGradient id="a" x1="-11.06" x2="31.72" y1="-8.98" y2="33.81" gradientUnits="userSpaceOnUse"><stop offset="0" stop-color="#9cecfb"></stop><stop offset=".51" stop-color="#65c7f7"></stop><stop offset="1" stop-color="#0052d4"></stop></linearGradient></defs><path fill="url(#a)" d="M17,23H7a3,3,0,0,1-3-3V12A3,3,0,0,1,7,9V6A5,5,0,0,1,17,6a1,1,0,0,1-2,0A3,3,0,0,0,9,6V9h8a3,3,0,0,1,3,3v8A3,3,0,0,1,17,23ZM7,11a1,1,0,0,0-1,1v8a1,1,0,0,0,1,1H17a1,1,0,0,0,1-1V12a1,1,0,0,0-1-1Zm5,8a1,1,0,0,1-1-1V16.73A2,2,0,0,1,10,15a2,2,0,0,1,4,0,2,2,0,0,1-1,1.73V18A1,1,0,0,1,12,19Zm0-4Z"></path></svg>