<svg xmlns="http://www.w3.org/2000/svg" width="24" height="24" fill="none" viewBox="0 0 24 24" id="volume-cross"><path fill="url(#paint0_linear_2535_6065)" fill-rule="evenodd" d="M12.1403 4.90978C11.4261 5.25675 10.521 5.85164 9.2312 6.70206L9.01226 6.84641C8.9956 6.8574 8.97916 6.86824 8.96293 6.87895C8.58273 7.12974 8.31941 7.30343 8.03087 7.43078C7.74651 7.55627 7.44766 7.64593 7.14119 7.69768C6.83019 7.7502 6.51474 7.75013 6.05928 7.75004C6.03984 7.75004 6.02014 7.75003 6.00019 7.75003C4.55651 7.75003 4.06922 7.76631 3.65491 7.958C3.25455 8.14323 2.82814 8.54443 2.6189 8.93278C2.42242 9.29743 1.96754 9.43376 1.60289 9.23729C1.23824 9.04081 1.10191 8.58593 1.29838 8.22128C1.66151 7.54732 2.33026 6.9181 3.02506 6.59664C3.77669 6.24889 4.62225 6.24933 5.83916 6.24998C5.89213 6.25 5.94579 6.25003 6.00019 6.25003C6.5367 6.25003 6.71966 6.24763 6.89142 6.21862C7.0753 6.18757 7.25462 6.13377 7.42523 6.05848C7.58458 5.98815 7.73866 5.88945 8.18658 5.59411L8.45336 5.41821C9.68423 4.60663 10.6713 3.95576 11.4849 3.56055C12.3109 3.15928 13.1242 2.9361 13.9424 3.21531C14.2143 3.30809 14.476 3.44128 14.711 3.60646C15.3504 4.05581 15.6553 4.74135 15.8271 5.52977C15.9964 6.30709 16.0625 7.31288 16.1232 8.54003C16.1436 8.95374 15.8248 9.30568 15.4111 9.32612C14.9974 9.34655 14.6454 9.02774 14.625 8.61403C14.5632 7.36321 14.4998 6.48403 14.3615 5.84912C14.2255 5.22532 14.0444 4.97136 13.8486 4.8337C13.7298 4.75023 13.5953 4.68181 13.4579 4.63492C13.2088 4.54989 12.8526 4.56376 12.1403 4.90978ZM15.5001 11.25C15.9143 11.25 16.2501 11.5858 16.2501 12C16.2501 12.552 16.2138 13.5253 16.162 14.6402L16.1593 14.6977C16.0915 16.1576 16.0371 17.3296 15.8779 18.2139C15.716 19.1134 15.4171 19.8974 14.711 20.3936C14.476 20.5588 14.2143 20.692 13.9424 20.7848C13.2004 21.038 12.4628 20.8773 11.7205 20.549C10.9876 20.2248 10.1278 19.6808 9.08903 19.0001C8.74257 18.7731 8.64576 18.3082 8.87279 17.9617C9.09982 17.6153 9.56472 17.5184 9.91117 17.7455C10.9699 18.4393 11.7265 18.9114 12.3273 19.1772C12.9188 19.4389 13.2325 19.4421 13.4579 19.3651C13.5953 19.3183 13.7298 19.2498 13.8486 19.1664C14.0652 19.0141 14.2627 18.7195 14.4016 17.9482C14.5411 17.1733 14.5925 16.1014 14.6636 14.5706C14.7157 13.451 14.7501 12.5118 14.7501 12C14.7501 11.5858 15.0859 11.25 15.5001 11.25ZM1.48332 11.7505C1.89728 11.7361 2.24449 12.0601 2.25884 12.474C2.26455 12.6391 2.27293 12.8093 2.2835 12.9828C2.36055 14.247 2.40062 14.6622 2.6189 15.0673C2.82814 15.4556 3.25455 15.8568 3.65491 16.0421C4.06922 16.2338 4.55651 16.25 6.00019 16.25C6.02014 16.25 6.03983 16.25 6.05927 16.25C6.51474 16.2499 6.83019 16.2499 7.14119 16.3024C7.54962 16.3714 7.8248 16.7584 7.75583 17.1668C7.68686 17.5752 7.29985 17.8504 6.89142 17.7814C6.71966 17.7524 6.5367 17.75 6.00019 17.75C5.94579 17.75 5.89213 17.7501 5.83917 17.7501C4.62225 17.7507 3.77669 17.7512 3.02506 17.4034C2.33026 17.082 1.66151 16.4527 1.29838 15.7788C0.905764 15.0501 0.859694 14.2881 0.794188 13.2045C0.79159 13.1615 0.788961 13.1181 0.786279 13.0741C0.775014 12.8892 0.765966 12.7058 0.759736 12.526C0.745394 12.112 1.06935 11.7648 1.48332 11.7505Z" clip-rule="evenodd"></path><path fill="url(#paint1_linear_2535_6065)" fill-rule="evenodd" d="M20.2646 6.3164C20.6421 6.14605 21.0863 6.31403 21.2566 6.6916C21.7237 7.72674 22.2501 9.45958 22.2501 12C22.2501 14.1916 21.8583 15.7829 21.4501 16.8442C21.2463 17.374 21.0395 17.7692 20.8776 18.039C20.7967 18.1738 20.7271 18.2772 20.6749 18.3504C20.6487 18.3869 20.627 18.4159 20.6103 18.4375C20.6019 18.4483 20.5949 18.4572 20.5892 18.4643L20.5817 18.4736L20.5787 18.4772L20.5774 18.4788C20.5771 18.4791 20.5763 18.4801 20.0001 18L20.5763 18.4801C20.3111 18.7983 19.8382 18.8413 19.52 18.5762C19.2033 18.3123 19.1592 17.8426 19.4201 17.5245C19.4207 17.5237 19.4219 17.5222 19.4236 17.52C19.4289 17.5132 19.4394 17.4994 19.4543 17.4785C19.484 17.4368 19.5316 17.3668 19.5914 17.2673C19.7107 17.0683 19.8789 16.751 20.0501 16.3058C20.3919 15.4171 20.7501 14.0084 20.7501 12C20.7501 9.67366 20.2695 8.15099 19.8894 7.30849C19.719 6.93093 19.887 6.48676 20.2646 6.3164Z" clip-rule="evenodd"></path><path fill="url(#paint2_linear_2535_6065)" fill-rule="evenodd" d="M18.1641 9.26566C18.5697 9.18146 18.9667 9.44198 19.0509 9.84754C19.161 10.378 19.2501 11.0889 19.2501 12C19.2501 13.1101 19.1179 13.9228 18.9766 14.4738C18.906 14.749 18.8334 14.9579 18.7746 15.1051C18.7452 15.1787 18.7192 15.2367 18.6987 15.2797C18.6885 15.3012 18.6796 15.3189 18.6724 15.333L18.6627 15.3514L18.6589 15.3585L18.6572 15.3615L18.6564 15.3629C18.6563 15.3632 18.6557 15.3642 18.0001 15L18.6557 15.3642C18.4546 15.7263 17.998 15.8568 17.6359 15.6556C17.2769 15.4562 17.1456 15.0056 17.3394 14.645L17.3444 14.6348C17.3513 14.6204 17.3644 14.5917 17.3819 14.548C17.4168 14.4608 17.4692 14.3135 17.5236 14.1012C17.6323 13.6772 17.7501 12.9899 17.7501 12C17.7501 11.1873 17.6707 10.5787 17.5822 10.1525C17.498 9.74689 17.7585 9.34986 18.1641 9.26566Z" clip-rule="evenodd"></path><path fill="url(#paint3_linear_2535_6065)" fill-rule="evenodd" d="M22.5304 1.46967C22.8233 1.76256 22.8233 2.23744 22.5304 2.53033L2.53043 22.5303C2.23754 22.8232 1.76266 22.8232 1.46977 22.5303C1.17688 22.2374 1.17688 21.7626 1.46977 21.4697L21.4698 1.46967C21.7627 1.17678 22.2375 1.17678 22.5304 1.46967Z" clip-rule="evenodd"></path><defs><linearGradient id="paint0_linear_2535_6065" x1="11.755" x2="11.755" y1="1.25" y2="22.75" gradientUnits="userSpaceOnUse"><stop stop-color="#854D9C"></stop><stop offset="1" stop-color="#CD4ED3"></stop></linearGradient><linearGradient id="paint1_linear_2535_6065" x1="11.755" x2="11.755" y1="1.25" y2="22.75" gradientUnits="userSpaceOnUse"><stop stop-color="#854D9C"></stop><stop offset="1" stop-color="#CD4ED3"></stop></linearGradient><linearGradient id="paint2_linear_2535_6065" x1="11.755" x2="11.755" y1="1.25" y2="22.75" gradientUnits="userSpaceOnUse"><stop stop-color="#854D9C"></stop><stop offset="1" stop-color="#CD4ED3"></stop></linearGradient><linearGradient id="paint3_linear_2535_6065" x1="11.755" x2="11.755" y1="1.25" y2="22.75" gradientUnits="userSpaceOnUse"><stop stop-color="#854D9C"></stop><stop offset="1" stop-color="#CD4ED3"></stop></linearGradient></defs></svg>