<svg xmlns="http://www.w3.org/2000/svg" xmlns:xlink="http://www.w3.org/1999/xlink" width="24" height="24" viewBox="0 0 24 24" id="warning"><defs><linearGradient id="d" x1="2" x2="21.95" y1="292.65" y2="312.6" gradientUnits="userSpaceOnUse" xlink:href="#a"></linearGradient><linearGradient id="a"><stop offset="0" stop-color="#f0f"></stop><stop offset="1" stop-color="#00f"></stop></linearGradient><linearGradient id="b" x1="2" x2="21.95" y1="292.65" y2="312.6" gradientUnits="userSpaceOnUse" xlink:href="#a"></linearGradient><linearGradient id="c" x1="2" x2="21.95" y1="292.65" y2="312.6" gradientUnits="userSpaceOnUse" xlink:href="#a"></linearGradient></defs><g transform="translate(0 -290.65)"><path style="line-height:normal;font-variant-ligatures:normal;font-variant-position:normal;font-variant-caps:normal;font-variant-numeric:normal;font-variant-alternates:normal;font-variant-east-asian:normal;font-feature-settings:normal;font-variation-settings:normal;text-indent:0;text-align:start;text-decoration-line:none;text-decoration-style:solid;text-decoration-color:#000;text-transform:none;text-orientation:mixed;white-space:normal;shape-padding:0;shape-margin:0;inline-size:0;isolation:auto;mix-blend-mode:normal;solid-color:#000;solid-opacity:1" fill="url(#b)" d="m 9.94727,293.95508 c -2.55088,5.02896 -5.10531,10.05897 -7.65821,15.08794 -0.38519,0.75889 -0.36448,1.59152 -0.0625,2.28125 0.30198,0.68973 0.99407,1.32616 1.89649,1.32617 h 15.76172 c 0.90198,0 1.59321,-0.63895 1.89257,-1.32812 0.29937,-0.68917 0.31891,-1.51968 -0.0703,-2.27539 L 13.92578,293.9395 c -0.39959,-0.77519 -1.17547,-1.29286 -1.91219,-1.28949 -0.95917,0 -1.63842,0.49473 -2.06632,1.30507 z m 2.20116,0.90234 7.77929,15.10547 c 0.11958,0.25549 0.19319,0.6875 -0.043,0.6875 H 4.12301 c -0.16904,0 -0.16851,-0.41409 -0.0508,-0.70117 l 7.64648,-15.06641 c 0.0986,-0.19205 0.35031,-0.17771 0.42968,-0.0254 z" color="#000" enable-background="accumulate" font-family="sans-serif" font-weight="400" overflow="visible"></path><path style="line-height:normal;font-variant-ligatures:normal;font-variant-position:normal;font-variant-caps:normal;font-variant-numeric:normal;font-variant-alternates:normal;font-variant-east-asian:normal;font-feature-settings:normal;font-variation-settings:normal;text-indent:0;text-align:start;text-decoration-line:none;text-decoration-style:solid;text-decoration-color:#000;text-transform:none;text-orientation:mixed;white-space:normal;shape-padding:0;shape-margin:0;inline-size:0;isolation:auto;mix-blend-mode:normal;solid-color:#000;solid-opacity:1" fill="url(#c)" d="m 12,298.65039 a 1,1 0 0 0 -1,1 v 5.01367 a 1,1 0 0 0 1,1 1,1 0 0 0 1,-1 v -5.01367 a 1,1 0 0 0 -1,-1 z" color="#000" enable-background="accumulate" font-family="sans-serif" font-weight="400" overflow="visible"></path><path fill="url(#d)" d="m 12.99969,307.66388 a 1,1 0 0 1 -1,1 1,1 0 0 1 -1,-1 1,1 0 0 1 1,-1 1,1 0 0 1 1,1 z"></path></g></svg>